<?xml version="1.0" encoding="UTF-8" standalone="no"?>
<!-- Created with Inkscape (http://www.inkscape.org/) -->

<svg
   xmlns:dc="http://purl.org/dc/elements/1.1/"
   xmlns:cc="http://creativecommons.org/ns#"
   xmlns:rdf="http://www.w3.org/1999/02/22-rdf-syntax-ns#"
   xmlns:svg="http://www.w3.org/2000/svg"
   xmlns="http://www.w3.org/2000/svg"
   version="1.1"
   width="300"
   height="224.41397"
   id="svg6719">
  <defs
     id="defs6721">
    <clipPath
       id="clipPath3027">
      <path
         d="m 465.964,728.987 105.322,0 0,78.786 -105.322,0 0,-78.786 z"
         id="path3029" />
    </clipPath>
    <clipPath
       id="clipPath3047">
      <path
         d="m 465.964,728.987 110.306,0 0,78.786 -110.306,0 0,-78.786 z"
         id="path3049" />
    </clipPath>
  </defs>
  <metadata
     id="metadata6724">
    <rdf:RDF>
      <cc:Work
         rdf:about="">
        <dc:format>image/svg+xml</dc:format>
        <dc:type
           rdf:resource="http://purl.org/dc/dcmitype/StillImage" />
        <dc:title></dc:title>
      </cc:Work>
    </rdf:RDF>
  </metadata>
  <g
     transform="translate(-272.85713,-208.72662)"
     id="layer1">
    <g
       transform="matrix(2.2787262,0,0,2.2787262,-1061.1277,97.462919)"
       id="g6634">
      <g
         transform="matrix(1.25,0,0,-1.25,2.953125,1058.5434)"
         id="g3023">
        <g
           clip-path="url(#clipPath3027)"
           id="g3025">
          <g
             transform="translate(485.4021,750.0085)"
             id="g3031">
            <path
               d="m 0,0 c -0.039,0.15 -0.118,0.229 -0.26,0.343 -0.141,0.11 -0.23,0.108 -0.23,0.108 l -0.037,0.037 c 0.049,0.056 -0.013,0.069 0.024,0.166 0.038,0.098 0,0.112 0,0.112 0,0 -0.099,0.003 -0.084,0.101 0.015,0.094 0.058,0.129 0.039,0.192 -0.018,0.061 -0.081,-0.008 -0.109,0.078 -0.04,0.132 -0.084,0.105 -0.084,0.105 l -0.067,0.022 c -0.082,0.093 -0.203,0.09 -0.203,0.09 L -1.126,1.441 C -1.203,1.667 -1.219,1.926 -1.265,1.92 -1.311,1.914 -1.279,1.816 -1.313,1.722 -1.347,1.631 -1.38,1.677 -1.38,1.677 -1.545,2.065 -1.693,2.026 -1.735,2.091 -1.775,2.155 -1.805,2.121 -1.899,2.203 -1.993,2.283 -2.057,2.195 -1.94,2.118 -1.822,2.042 -1.805,1.88 -1.772,1.82 -1.742,1.758 -1.797,1.722 -1.852,1.761 -1.909,1.804 -1.875,1.889 -1.962,2.021 -2.051,2.155 -2.346,2.445 -2.366,2.358 -2.388,2.269 -2.28,2.229 -2.184,1.974 -2.089,1.716 -2.179,1.731 -2.206,1.728 -2.235,1.724 -2.285,1.754 -2.396,1.913 -2.506,2.07 -2.591,2.091 -2.591,2.091 -2.641,2.185 -2.716,2.228 -2.813,2.289 -2.91,2.351 -2.932,2.449 -2.978,2.4 -3.023,2.354 -2.985,2.257 -2.851,2.121 -2.716,1.985 -2.745,1.995 -2.686,1.864 -2.628,1.731 -2.642,1.706 -2.728,1.698 -2.816,1.692 -2.996,1.916 -3.078,2.003 -3.159,2.088 -3.257,2.165 -3.342,2.236 -3.426,2.308 -3.444,2.228 -3.397,2.134 -3.353,2.044 -3.214,1.844 -3.122,1.722 -3.033,1.599 -3.134,1.561 -3.208,1.567 -3.283,1.568 -3.363,1.631 -3.363,1.631 -3.549,1.737 -3.582,1.743 -3.658,1.788 -3.734,1.834 -3.847,1.949 -3.873,1.928 -3.897,1.907 -3.944,1.869 -3.841,1.703 -3.739,1.535 -3.847,1.538 -3.847,1.538 -4.018,1.6 -4.18,1.513 -4.142,1.377 c 0.037,-0.134 0.134,-0.235 0.134,-0.235 0,0 -0.008,-0.008 -0.027,-0.081 -0.018,-0.07 0.068,-0.131 0.068,-0.131 0.002,-0.077 0.051,-0.219 0.177,-0.223 0.227,-0.002 0.033,-0.045 0.212,-0.099 0.181,-0.056 0.464,-0.059 0.464,-0.059 0.02,-0.044 -0.03,-0.08 -0.03,-0.08 0,0 -0.634,-0.232 -1.511,-1.247 -0.033,-0.037 -0.082,-0.185 -0.113,-0.224 -0.137,-0.169 -0.249,-0.317 -0.376,-0.518 -0.055,-0.088 -0.153,-0.197 -0.206,-0.285 -0.161,-0.28 -0.32,-0.492 -0.453,-0.761 -0.035,-0.075 -0.086,-0.221 -0.128,-0.283 -0.329,-0.512 -0.512,-0.714 -0.512,-0.714 0,0 -0.22,-0.306 -1.182,-0.709 -0.21,-0.09 -0.34,-0.136 -0.608,-0.197 -0.326,-0.073 -0.615,-0.148 -0.911,-0.244 -0.32,-0.102 -0.592,-0.169 -1.065,-0.368 -0.316,-0.138 -0.767,-0.401 -1.197,-0.598 0,0 -0.016,0.076 -0.077,0.197 -0.014,0.025 -0.038,0.08 -0.052,0.108 -0.017,0.028 -0.039,0.04 -0.059,0.071 -0.018,0.029 -0.026,0.063 -0.046,0.092 -0.028,0.04 -0.072,0.077 -0.107,0.115 -0.115,0.134 -0.213,0.255 -0.438,0.298 -0.042,0.01 -0.074,0.028 -0.108,0.039 -0.015,0.004 -0.055,0.024 -0.073,0.031 -0.061,0.025 -0.126,0.093 -0.179,0.124 -0.292,0.17 -0.429,0.348 -0.429,0.348 0,0 -0.211,0.941 -0.99,1.576 -0.037,0.029 -0.119,0.017 -0.157,0.044 -0.066,0.05 -0.103,0.148 -0.158,0.181 l -0.102,-0.011 -0.012,0.034 -0.1,0.145 -0.055,-0.059 c -0.227,0.108 -0.487,0.241 -0.778,0.274 l -0.406,-0.039 c -0.159,-0.004 -0.311,-0.021 -0.457,-0.051 -0.11,-0.02 -0.217,-0.058 -0.321,-0.093 -0.339,-0.11 -0.636,-0.254 -0.888,-0.442 -0.307,-0.231 -0.546,-0.511 -0.716,-0.743 -0.656,-0.762 -0.883,-1.873 -0.883,-1.873 -0.138,-0.236 -0.187,-0.607 -0.187,-0.607 -0.265,-0.651 -0.331,-1.434 -0.16,-2.073 0.172,-0.639 0.614,-0.951 0.614,-0.951 l 0.002,0.075 c -0.081,0.174 -0.266,0.569 -0.266,0.569 -0.039,0.169 -0.072,0.381 -0.092,0.761 -0.019,0.382 0.091,0.762 0.119,0.883 0.028,0.122 0.084,0.174 0.084,0.174 0.057,-0.113 0.201,-0.326 0.201,-0.326 -0.035,0.166 -0.136,0.531 -0.136,0.531 0.317,0.666 0.517,0.806 0.517,0.806 l 0,0.029 c -0.033,0.023 -0.058,0.048 -0.058,0.048 0.076,-0.021 0.11,-0.01 0.11,-0.01 0.127,0.15 0.242,0.262 0.242,0.262 0.043,-0.082 0.081,-0.106 0.081,-0.106 l 0.028,0.076 0.039,-0.013 0.028,0.062 c 0.034,0.012 0.072,-0.011 0.072,-0.011 l 0.06,0.018 c -0.13,-0.063 -0.161,-0.165 -0.161,-0.165 l 0.039,-0.085 0.139,-0.116 0.02,-0.03 c -0.171,-0.254 -0.246,-0.496 -0.246,-0.496 -0.007,-0.074 -0.039,-0.189 -0.039,-0.189 -0.07,-0.152 -0.077,-0.404 -0.055,-0.529 0.022,-0.125 0.107,-0.218 0.107,-0.218 0,0 0.066,0.242 0.101,0.358 0.037,0.115 0.07,0.142 0.119,0.275 0.048,0.134 0.119,0.188 0.119,0.188 l 0.02,0.019 c -10e-4,-0.065 -0.051,-0.326 0.026,-0.467 0.077,-0.137 0.111,-0.24 0.136,-0.231 0.026,0.012 0.077,0.132 0.077,0.132 0,0 0.018,-0.033 0.036,-0.073 0.017,-0.039 -0.004,-0.083 -0.004,-0.083 -0.188,-0.102 -0.191,-0.143 -0.191,-0.143 l 0.062,0.002 c 0.169,0.008 0.015,-0.052 0.015,-0.052 -0.108,-0.031 -0.1,-0.074 -0.1,-0.074 l 0.073,-0.002 -0.008,-0.036 0.054,-0.008 0.01,-0.02 -0.103,-0.067 c 0.025,-0.22 0.145,-0.213 0.339,-0.156 0.196,0.051 0.373,0.112 0.373,0.112 l -0.009,-0.034 c 0,0 0.445,0.108 0.577,0.138 0.13,0.032 0.226,-0.073 0.226,-0.073 -0.044,-0.04 -0.035,-0.108 -0.035,-0.108 -0.083,-0.022 -0.09,-0.124 -0.09,-0.124 0,0 -0.045,-0.022 -0.013,-0.148 0.032,-0.128 0.171,-0.306 0.171,-0.306 0.116,-0.006 0.156,-0.085 0.119,-0.201 -0.037,-0.116 0.032,-0.244 0.243,-0.271 0.209,-0.028 0.209,-0.116 0.209,-0.116 0.079,-0.129 0.019,-0.246 0.019,-0.246 -0.115,-0.138 0.126,-0.272 0.126,-0.272 0.119,-0.131 0.038,-0.263 0.038,-0.263 l -0.031,0.043 -0.006,-0.064 -0.044,0.072 -0.006,-0.065 -0.075,0.036 c 0.068,-0.12 0.147,-0.17 0.147,-0.17 l 0.001,-0.06 0.021,-0.029 -0.007,-0.051 c 0.031,-0.053 -0.006,-0.08 -0.006,-0.08 0.106,-0.066 0.027,-0.181 0.027,-0.181 0.154,-0.099 0.24,-0.203 0.24,-0.203 l -0.029,-0.057 0.133,-0.009 0.096,-0.068 0.067,0.047 0.052,-0.054 0.022,-0.064 0.027,-0.024 0.003,-0.053 c 0.041,-0.044 0.01,-0.08 0.01,-0.08 0.117,-0.042 0.064,-0.172 0.064,-0.172 0.026,-0.048 0.055,-0.179 0.055,-0.179 l 0.154,-0.1 0.105,-0.049 0.047,-0.008 -0.034,-0.151 0.057,0.057 0.115,-0.144 c 0.118,-0.223 0.316,-0.439 0.422,-0.505 0.105,-0.066 0.029,-0.136 0.029,-0.136 0.152,-0.093 0.239,-0.2 0.239,-0.2 l -0.03,-0.057 0.135,-0.01 0.097,-0.066 0.066,0.046 0.067,-0.084 0.067,0.007 -0.019,-0.057 0.145,-0.153 0.086,-0.01 -0.04,-0.067 0.106,-0.028 -0.019,-0.068 0.135,0.039 0.048,-0.068 0.115,-0.087 0.105,-0.045 0.048,-0.012 0.097,-0.113 0.056,0.057 0.115,-0.145 0.067,-0.066 -0.067,-0.049 c 0.038,-0.028 0.269,-0.154 0.269,-0.154 l 0.028,-0.094 0.059,-0.047 0,-0.125 c 0,0 0.028,0 0.144,0.018 0.114,0.02 0.21,-0.068 0.21,-0.068 -0.056,-0.432 0.047,-0.384 0.047,-0.384 l 0.107,0.042 c 0.153,0 0.192,0.093 0.192,0.093 0.018,-0.075 0.171,-0.115 0.181,-0.174 0.01,-0.056 -0.095,-0.123 -0.095,-0.123 l 0.095,-0.038 0.049,0.029 0,-0.057 0.096,0.038 c 0.047,-0.251 0.114,-0.191 0.114,-0.191 0,0 0.115,0.047 0.144,0.095 0.03,0.047 0.125,-0.107 0.125,-0.107 l 0.02,-0.104 c -0.087,-0.231 -0.059,-0.566 -0.059,-0.566 0.134,-0.363 0.292,-0.508 0.292,-0.508 0,0 0.057,-0.537 0.163,-0.7 0.105,-0.163 0.473,-1.302 0.536,-1.496 0.064,-0.196 0.141,-0.444 0.141,-0.444 0,0 -0.04,-0.076 -0.01,-0.077 0.032,-0.002 0.023,-0.054 0.023,-0.054 -0.041,-0.074 0,-0.055 0.002,-0.098 0.003,-0.04 0.01,-0.245 -0.07,-0.255 -0.078,-0.01 -0.082,-0.109 -0.082,-0.109 -0.124,-0.062 -0.094,-0.084 -0.101,-0.108 -0.01,-0.024 -0.078,-0.069 -0.078,-0.069 l -0.002,-0.032 c 0,0 -0.051,-0.051 -0.08,-0.084 -0.027,-0.036 -0.139,-0.126 -0.139,-0.126 l -0.059,-0.035 -0.063,-0.052 -0.049,-0.029 -0.044,-0.018 -0.051,-0.015 -0.033,-0.031 -0.025,-0.015 c -0.172,-0.025 -0.26,-0.133 -0.316,-0.264 -0.058,-0.133 0,-0.266 0.069,-0.144 0.069,0.119 0.175,0.119 0.175,0.119 0,0 -0.011,-0.121 0.167,-0.137 0.178,-0.012 0.26,0.059 0.289,0.08 0.029,0.02 0.062,0.102 0.062,0.102 0.018,0.026 0.082,0.039 0.082,0.039 0.077,0.068 0.11,0.11 0.179,0.164 0.067,0.051 0.082,0.038 0.082,0.038 0,0 0.017,-0.099 -0.019,-0.181 -0.037,-0.08 -0.186,-0.21 -0.186,-0.21 -0.153,-0.053 -0.271,-0.121 -0.3,-0.136 -0.028,-0.016 -0.121,-0.115 -0.121,-0.115 l -0.004,-0.029 c -0.104,-0.067 -0.297,-0.255 -0.321,-0.401 -0.023,-0.148 0.095,-0.043 0.159,0.024 0.067,0.069 0.123,0.115 0.123,0.115 l 0.039,0 c 0.036,-0.071 0.248,-0.104 0.346,0 0.1,0.106 0.175,0.1 0.237,0.107 0.062,0.011 0.141,-10e-4 0.253,0.178 0.114,0.176 0.25,0.198 0.346,0.212 0.098,0.013 0.206,-0.063 0.206,-0.063 l -0.026,-0.019 c -0.185,-0.038 -0.296,-0.209 -0.328,-0.339 -0.032,-0.125 0.037,-0.163 0.074,-0.084 0.035,0.082 0.145,0.136 0.166,0.138 0.022,0.005 0.03,-0.027 0.03,-0.027 0.024,-0.112 0.172,-0.139 0.298,-0.108 0.128,0.033 0.162,0.105 0.183,0.142 0.02,0.039 0.046,0.043 0.046,0.043 0,0 -0.003,-0.098 -0.014,-0.142 -0.01,-0.04 -0.115,-0.143 -0.115,-0.143 -0.101,-0.044 -0.106,-0.077 -0.106,-0.077 -0.203,-0.025 -0.219,-0.065 -0.238,-0.077 -0.02,-0.014 -0.052,-0.041 -0.052,-0.041 -0.16,-0.047 -0.281,-0.188 -0.337,-0.265 -0.058,-0.075 -0.138,-0.263 -0.062,-0.207 0.098,0.07 0.251,0.172 0.251,0.172 0.062,0.044 0.034,-0.038 0.103,-0.063 0.112,-0.043 0.299,0.015 0.299,0.015 0.037,0.062 0.084,0.071 0.084,0.071 0.217,0 0.298,0.1 0.298,0.1 l 0.125,0 0.11,0.074 c 0.208,0.053 0.148,0.131 0.148,0.131 0.07,0.006 0.621,0.009 0.7,-0.003 0.08,-0.012 0.3,-0.075 0.3,-0.075 l 0.34,-0.015 c 0,0 0.316,-0.061 0.395,-0.023 0.16,0.076 0.265,0.038 0.36,-0.009 0.095,-0.049 0.367,-0.045 0.396,0.018 0.029,0.064 0.081,0.099 0.081,0.099 0.138,-0.02 0.224,-0.168 0.352,-0.156 0.13,0.01 -0.013,0.156 -0.18,0.293 -0.169,0.134 -0.392,0.155 -0.392,0.155 l -0.008,0.016 c 0.073,0.023 0.02,-0.028 0.239,10e-4 0.219,0.03 0.174,0.113 0.174,0.113 0.077,0.069 0.207,0.062 0.373,0.015 0.166,-0.051 0.138,0.024 -0.042,0.178 -0.18,0.152 -0.47,0.07 -0.47,0.07 l -0.048,0.033 -0.125,0 -0.069,0.028 c -0.145,-0.02 -0.519,-0.125 -0.712,-0.054 -0.194,0.07 -0.297,0.026 -0.297,0.026 l -0.139,0.083 c 0.075,-0.013 0.117,0.069 0.117,0.069 0.146,-0.076 0.27,0.007 0.27,0.007 0,0 0,-0.04 0.187,-0.035 0.186,0.007 0.216,0.174 0.216,0.174 0.055,0.041 0.192,0.015 0.192,0.015 0.262,-0.125 0.166,0.026 0.166,0.026 -0.186,0.284 -0.505,0.174 -0.505,0.174 -0.139,0.077 -0.153,0.021 -0.153,0.021 -0.241,0.02 -0.373,-0.036 -0.373,-0.036 -0.152,0 -0.311,0.015 -0.476,-0.007 -0.152,-0.018 -0.437,0.035 -0.437,0.035 -0.138,0.244 -0.275,1.025 -0.338,1.185 -0.064,0.159 -0.264,1.149 -0.264,1.149 l -0.097,0.622 c 0.063,0.077 0.063,0.118 0.077,0.354 0.013,0.234 0.142,0.263 0.204,0.583 0.063,0.317 0.499,0.74 0.616,0.897 0.117,0.159 0.309,0.518 0.309,0.518 0.074,-0.105 0.122,-0.058 0.182,0.011 0.059,0.068 0.054,0.215 0.077,0.263 0.025,0.049 0.039,0.147 0.039,0.147 l 0.006,0.176 c 0.039,0.151 0.121,0.322 0.121,0.322 l 0.035,0.098 0.014,0.054 c 0,0 -0.019,0.009 0.117,0.229 0.137,0.219 0.494,0.464 0.494,0.464 l -0.123,-0.146 c 0.074,0.049 0.293,0.13 0.293,0.13 l 0.068,0.055 -0.033,-0.092 c 0.284,0.322 0.341,0.209 0.341,0.209 l 0.01,0.119 c 0.029,0.056 0.073,-0.051 0.073,-0.051 0.114,0.113 0.206,0.213 0.206,0.213 l 0.009,-0.124 0.048,-0.01 c 0.015,0.092 0.079,0.143 0.079,0.143 0.029,-0.076 -0.01,-0.182 -0.01,-0.182 l 0.044,0.077 0.011,-0.023 c 0.047,0.045 0.076,0.157 0.076,0.157 l 0.055,-0.004 c 0,0 0.112,0.15 0.101,0.258 -0.009,0.107 0.053,0.227 0.053,0.227 0.011,-0.095 0.081,-0.125 0.081,-0.125 l 0,0.185 0.047,-0.029 c -0.008,0.188 0.025,0.391 0.025,0.391 0.244,0.235 0.941,0.794 0.941,0.794 0.185,0.141 0.336,0.358 0.595,0.581 0.261,0.219 0.462,0.371 0.462,0.371 l -0.012,0.062 0.058,0.023 c 0.222,0.304 0.425,0.676 0.514,0.977 0.089,0.302 0.247,0.821 0.247,0.821 l -0.019,0.063 c 0.113,0.016 0.019,0.164 0.089,0.216 0.071,0.053 0.059,0.232 0.059,0.232 0.094,0.18 0.078,0.326 0.078,0.326 0.041,0.059 0.063,0.218 0.059,0.311 -0.004,0.092 0.042,0.256 0.133,0.745 0.105,0.563 -0.181,1.165 -0.271,1.66 -0.179,0.459 -0.411,0.797 -0.557,1.041 -0.084,0.143 0.006,0.176 0.006,0.176 l 0.314,0.072 0.489,0.154 c 0,0 0.117,0.082 0.163,0.151 0.044,0.07 0.08,0.086 0.08,0.086 0.165,0.029 0.139,0.163 0.139,0.163 0.177,0.182 0.117,0.524 0.117,0.524 0,0 0.072,0.117 -0.041,0.484 -0.116,0.366 -0.267,0.388 -0.267,0.388 0,0 0.007,0.014 -0.031,0.084 -0.038,0.069 -0.097,0.066 -0.097,0.066 0.019,0.057 0.059,0.068 0.103,0.112 0.038,0.042 0.074,0.03 0.074,0.03 0.085,-0.008 0.118,-0.014 0.21,-0.011 0.094,0.005 0.143,0.016 0.19,0.042 C -0.052,-0.059 0.04,-0.148 0,0 m -8.163,-18.38 c -0.059,0.203 -0.114,0.247 -0.216,0.585 -0.103,0.34 -0.441,1.708 -0.441,1.708 l 0.057,0.045 c 0.057,-0.182 0.249,-0.453 0.249,-0.453 0.156,-0.382 0.292,-1.006 0.382,-1.432 0.091,-0.43 0.149,-0.655 0.149,-0.655 -0.103,0.169 -0.18,0.202 -0.18,0.202"
               id="path3033"
               style="fill:#231f20;fill-opacity:1;fill-rule:nonzero;stroke:none" />
          </g>
          <g
             transform="translate(534.9513,762.3285)"
             id="g3035">
            <path
               d="m 0,0 c -0.644,-0.064 -2.402,1.76 -2.672,4.28 -0.185,1.719 0.651,20.122 0.526,21.271 -0.125,1.15 1.28,4.37 2.708,5.047 1.511,0.716 1.958,0.902 3.639,0.987 -0.304,0.804 -0.624,1.547 -0.958,2.194 0,-0.003 0.002,-0.005 0.002,-0.005 0,0 -3.536,-0.247 -5.13,0.651 -1.596,0.897 -0.892,1.278 -0.253,1.723 0.64,0.446 1.965,0.128 3.854,-0.263 0,0 0.069,-0.067 0.172,-0.167 -5.612,6.096 -17.35,9.493 -26.798,9.716 -6.156,0.144 -12.142,-1.14 -13.855,-1.659 -1.713,-0.516 -9.273,-2.159 -13.604,-8.455 -3.212,-4.67 -4.742,-10.551 -2.761,-17.597 1.981,-7.045 6.125,-12.22 8.499,-15.521 2.376,-3.298 5.982,-5.994 3.462,-8.926 -2.519,-2.932 -4.77,-5.091 -4.77,-5.091 l 8.729,3.745 c 0,0 4.21,-3.929 6.734,-5.307 2.521,-1.382 6.262,-2.621 9.351,-2.567 3.441,0.06 12.204,2.676 19.212,10.5 1.815,2.028 3.344,3.938 4.645,5.839 C 0.399,-0.082 0.419,0.045 0,0"
               id="path3037"
               style="fill:#fbbc09;fill-opacity:1;fill-rule:nonzero;stroke:none" />
          </g>
          <g
             transform="translate(570.4067,790.9354)"
             id="g3039">
            <path
               d="m 0,0 c -0.39,0.921 -1.226,3.326 -4.137,4.887 -2.91,1.564 -7.492,0.884 -10.02,-1.761 -2.526,-2.644 -6.122,-8.859 -6.95,-10.315 -0.829,-1.456 -1.39,-2.043 -1.39,-2.043 l -5.653,-0.035 c 0,0 -0.579,3.43 -1.551,7.191 -0.559,0.2 -3.752,1.21 -4.063,-1.661 -0.326,-3.002 -0.842,-3.619 1.136,-4.389 1.978,-0.771 3.892,-1.99 2.484,-3.391 -1.409,-1.403 -3.009,-1.383 -3.713,-1.637 -0.702,-0.253 -1.726,-0.953 -1.541,-4.147 0.185,-3.194 0.764,-3.229 1.722,-3.87 0.744,-0.499 2.042,-0.836 1.779,-2.177 1.894,3.944 3.023,8.21 3.798,13.677 0,0 4.699,-1.978 5.674,-2.722 0.975,-0.743 2.011,0.047 2.322,-5.216 0.313,-5.264 0.332,-10.342 2.185,-11.736 1.852,-1.395 5.712,-2.649 9.349,1.746 3.637,4.396 4.367,6.425 5.553,8.558 1.148,2.063 2.785,6.649 2.997,7.255 C 1.011,-8.839 1.33,-3.148 0,0"
               id="path3041"
               style="fill:#fbbc09;fill-opacity:1;fill-rule:nonzero;stroke:none" />
          </g>
        </g>
      </g>
      <g
         transform="matrix(1.25,0,0,-1.25,2.953125,1058.5434)"
         id="g3043">
        <g
           clip-path="url(#clipPath3047)"
           id="g3045">
          <g
             transform="translate(496.0757,789.5602)"
             id="g3051">
            <path
               d="m 0,0 c -0.231,2.136 -3.035,4.787 -3.926,5.155 -6.412,2.63 -11.22,-4.231 -11.37,-4.621 -0.382,-0.989 -0.355,-1.64 -0.022,-3.233 0.658,-3.143 5.241,-15.434 8.686,-21.474 3.475,-6.094 2.397,2.304 1.398,7.502 -0.658,3.418 -1.21,7.266 -1.21,7.266 0,0 1.764,0.916 4.426,2.82 C 0.645,-4.682 0.234,-2.138 0,0"
               id="path3053"
               style="fill:#ffffff;fill-opacity:1;fill-rule:nonzero;stroke:none" />
          </g>
          <g
             transform="translate(500.5023,793.5356)"
             id="g3055">
            <path
               d="m 0,0 c -0.528,-0.649 -2.453,-1.773 -3.375,-9.508 -0.919,-7.714 -1.155,-8.004 -1.362,-12.889 -0.213,-4.999 -0.176,-9.591 1.122,-9.993 1.3,-0.403 1.501,1.471 1.65,3.116 0.148,1.647 0.437,2.565 1.304,6.948 0.866,4.383 1.589,7.149 2.897,7.402 2.553,0.499 2.305,-4.054 2.693,-6.025 0.357,-1.813 1.174,-6.823 1.929,-8.612 2.444,-5.787 3.204,-0.559 3.299,1.679 0.096,2.233 -1.002,12.381 -2.308,20.28 C 6.543,0.297 2.458,3.02 0,0"
               id="path3057"
               style="fill:#ffffff;fill-opacity:1;fill-rule:nonzero;stroke:none" />
          </g>
          <g
             transform="translate(524.1841,798.592)"
             id="g3059">
            <path
               d="M 0,0 C 0.777,0.794 0.847,2.025 -2.392,2.648 -6.601,3.455 -12.45,3.826 -18.035,3.082 -20.11,2.807 -21.961,2.059 -22.336,1.14 c -0.494,-1.21 0.032,-2.481 1.766,-2.66 2.144,-0.221 2.713,-0.322 3.935,-0.658 2.209,-0.603 3.209,-2.291 3.848,-6.245 0.769,-4.734 1.418,-20.369 1.571,-23.927 0.089,-2.06 0.393,-5.476 0.637,-6.584 0.665,-3.024 1.83,-3.2 2.482,-1.339 0.65,1.851 0.504,10.891 0.358,15.682 -0.144,4.792 0.064,12.695 -0.043,16.577 -0.091,3.319 0.707,5.422 2.537,6.521 C -3.437,-0.405 -1.016,-1.038 0,0"
               id="path3061"
               style="fill:#ffffff;fill-opacity:1;fill-rule:evenodd;stroke:none" />
          </g>
          <g
             transform="translate(530.1797,795.4234)"
             id="g3063">
            <path
               d="m 0,0 c -1.851,0.578 -2.493,-0.889 -2.88,-2.677 -0.387,-1.787 -0.911,-7.405 -0.725,-9.96 0.185,-2.556 0.18,-5.11 -1.673,-4.977 -1.85,0.131 -1.588,1.142 -1.519,5.606 0.069,4.318 1.765,13.192 -0.864,13.111 -0.862,-0.028 -1.623,-0.771 -1.99,-1.682 -0.258,-0.638 -1.023,-2.846 -0.715,-8.019 0.308,-5.174 -0.027,-12.07 -0.033,-14.625 -0.006,-2.554 -0.343,-10.089 -0.411,-12.26 -0.068,-2.171 0.385,-6.757 2.421,-2.496 0.853,1.788 0.905,4.723 1.359,8.108 0.455,3.382 0.33,4.531 0.845,6.256 0.515,1.723 1.918,3.546 2.364,0.824 0.253,-1.533 -0.708,-7.433 -0.674,-9.199 0.061,-3.182 0.285,-6.916 0.92,-7.637 1.812,-2.062 2.4,0.609 2.658,1.823 0.259,1.213 0.655,7.278 0.724,9.194 0.068,1.915 1.33,22.373 1.461,24.776 C 1.335,-2.621 1.85,-0.579 0,0"
               id="path3065"
               style="fill:#ffffff;fill-opacity:1;fill-rule:evenodd;stroke:none" />
          </g>
          <g
             transform="translate(536.7305,769.7651)"
             id="g3067">
            <path
               d="m 0,0 c -0.958,0.64 -1.537,0.675 -1.722,3.869 -0.184,3.194 0.839,3.894 1.541,4.147 0.704,0.255 2.305,0.235 3.713,1.637 1.408,1.401 -0.506,2.62 -2.484,3.391 -1.977,0.77 -1.462,1.388 -1.135,4.389 0.31,2.871 3.503,1.861 4.062,1.662 -0.443,1.712 -0.966,3.494 -1.554,5.053 -1.68,-0.084 -2.127,-0.271 -3.638,-0.987 -1.428,-0.677 -2.834,-3.897 -2.708,-5.047 0.125,-1.148 -0.711,-19.552 -0.526,-21.27 0.27,-2.521 2.028,-4.345 2.672,-4.281 0.419,0.045 0.398,-0.082 0.731,0.395 1.099,1.607 2.03,3.208 2.827,4.865 C 2.043,-0.837 0.745,-0.5 0,0"
               id="path3069"
               style="fill:#ffffff;fill-opacity:1;fill-rule:evenodd;stroke:none" />
          </g>
          <g
             transform="translate(536.7305,769.7651)"
             id="g3071">
            <path
               d="m 0,0 c -0.958,0.64 -1.537,0.675 -1.722,3.869 -0.184,3.194 0.839,3.894 1.541,4.147 0.704,0.255 2.305,0.235 3.713,1.637 1.408,1.401 -0.506,2.62 -2.484,3.391 -1.977,0.77 -1.462,1.388 -1.135,4.389 0.31,2.871 3.503,1.861 4.062,1.662 -0.443,1.712 -0.966,3.494 -1.554,5.053 -1.68,-0.084 -2.127,-0.271 -3.638,-0.987 -1.428,-0.677 -2.834,-3.897 -2.708,-5.047 0.125,-1.148 -0.711,-19.552 -0.526,-21.27 0.27,-2.521 2.028,-4.345 2.672,-4.281 0.419,0.045 0.398,-0.082 0.731,0.395 1.099,1.607 2.03,3.208 2.827,4.865 C 2.043,-0.837 0.745,-0.5 0,0"
               id="path3073"
               style="fill:#ffffff;fill-opacity:1;fill-rule:evenodd;stroke:none" />
          </g>
          <g
             transform="translate(554.4611,765.8428)"
             id="g3075">
            <path
               d="M 0,0 C -1.212,-2.147 -0.148,-3.071 1.319,-3.776 2.787,-4.482 3.603,-3.583 4.082,-2.859 4.574,-2.12 4.785,-1.8 4.724,-0.395 4.664,1.009 1.362,2.412 0,0"
               id="path3077"
               style="fill:#ffffff;fill-opacity:1;fill-rule:evenodd;stroke:none" />
          </g>
          <g
             transform="translate(565.1627,792.9562)"
             id="g3079">
            <path
               d="m 0,0 c -2.717,1.044 -3.969,0.723 -5.197,-0.63 -0.715,-0.788 -2.312,-5.717 -2.778,-9.092 -0.237,-1.709 -0.455,-10.865 -0.455,-10.865 0,0 -0.074,-5.786 2.089,-2.842 0.967,1.314 3.366,6.015 4.302,8.296 0.937,2.278 3.578,7.469 3.7,9.318 C 1.783,-3.966 2.719,-1.043 0,0"
               id="path3081"
               style="fill:#ffffff;fill-opacity:1;fill-rule:evenodd;stroke:none" />
          </g>
          <g
             transform="translate(532.8134,798.4769)"
             id="g3083">
            <path
               d="m 0,0 c -0.64,-0.445 -1.343,-0.827 0.252,-1.724 1.594,-0.898 5.131,-0.65 5.131,-0.65 0,0 -0.002,0.002 -0.003,0.004 C 5.06,-1.753 4.728,-1.225 4.383,-0.827 4.268,-0.693 4.149,-0.546 4.029,-0.415 3.927,-0.314 3.871,-0.257 3.871,-0.257 1.982,0.135 0.64,0.445 0,0"
               id="path3085"
               style="fill:#ffffff;fill-opacity:1;fill-rule:evenodd;stroke:none" />
          </g>
          <g
             transform="translate(532.8134,798.4769)"
             id="g3087">
            <path
               d="m 0,0 c -0.64,-0.445 -1.343,-0.827 0.252,-1.724 1.594,-0.898 5.131,-0.65 5.131,-0.65 0,0 -0.002,0.002 -0.003,0.004 C 5.06,-1.753 4.728,-1.225 4.383,-0.827 4.268,-0.693 4.149,-0.546 4.029,-0.415 3.927,-0.314 3.871,-0.257 3.871,-0.257 1.982,0.135 0.64,0.445 0,0"
               id="path3089"
               style="fill:#ffffff;fill-opacity:1;fill-rule:evenodd;stroke:none" />
          </g>
          <g
             transform="translate(501.1788,784.612)"
             id="g3091">
            <path
               d="M 0,0 C -0.707,-3.504 3.565,-1.572 3.798,-0.963 3.988,-0.467 3.506,1.733 2.131,3.442 0.756,5.154 0.217,1.074 0,0"
               id="path3093"
               style="fill:#fbbc09;fill-opacity:1;fill-rule:evenodd;stroke:none" />
          </g>
          <g
             transform="translate(489.5974,789.731)"
             id="g3095">
            <path
               d="m 0,0 c -0.933,0.752 -2.219,0.863 -2.742,-0.082 -0.524,-0.946 -1.223,-1.969 0.764,-5.034 0.476,-0.733 3.103,0.71 3.147,2.05 C 1.208,-1.955 0.762,-0.614 0,0"
               id="path3097"
               style="fill:#fbbc09;fill-opacity:1;fill-rule:nonzero;stroke:none" />
          </g>
        </g>
      </g>
    </g>
  </g>
</svg>
