<?xml version="1.0" encoding="utf-8"?>
<!-- Generator: Adobe Illustrator 19.1.0, SVG Export Plug-In . SVG Version: 6.00 Build 0)  -->
<svg version="1.1" id="Layer_1" xmlns="http://www.w3.org/2000/svg" xmlns:xlink="http://www.w3.org/1999/xlink" x="0px" y="0px"
	 width="1000px" height="1000px" viewBox="0 0 1000 1000" style="enable-background:new 0 0 1000 1000;" xml:space="preserve">
<path d="M927.8,480.9c-2.2-33.6-11.7-70.2-35.8-95c-26.6-27.3-65.3-38.2-100-27c-2.9,0.9-27,8.6-26.8,10.9l-2.3-27.8
	c-33.9-28.1-58.2-37.8-97.2-41.5c-15.3-54-18.7-64.7-27.4-85.5c-12.7-30.4-40.4-49.4-73.2-51.6c-24.8-1.7-49.5,6.1-68.3,22.3
	c-45.6,39.2-46.5,94.6-53,139.9c-6.1,1.9-12,4-17.8,6.1c-17.7,4.5-53,23.9-53.7,24.3c0,0.2,1.6,118.1,1.6,118.1L218.8,337.4
	l6.9-108.8c3.7-13.9-2.2-26.5-16.2-25.5c-73.1,16.3-165.4,96.3-178.3,155.1c-5,12.7-1.7,20.4,13.8,20.8L163.2,393l208.4,270.9
	l4.7,104.2c117.4,68.3,310.2,54.4,391.3-7L770,702c31-22,59.6-35.6,87.7-61.3c18.4-16.7,37-34.3,49.3-56.2
	C927.5,548,930,515.5,927.8,480.9z M61.1,339.7c-4.9,6.6-10.8,10.5-13.3,8.7c-2.5-1.8-0.6-8.7,4.3-15.3c4.9-6.6,10.8-10.5,13.3-8.7
	C67.9,326.3,66,333.1,61.1,339.7z M88.5,289c6.3-5.2,13.1-7.5,15-5.1c2,2.4-1.6,8.6-7.9,13.8c-6.3,5.2-13.1,7.5-15,5.1
	C78.6,300.4,82.1,294.3,88.5,289z M97.9,328.5c-6.5,5.1-13.3,7.2-15.2,4.7c-1.9-2.4,1.8-8.5,8.3-13.6c6.5-5.1,13.3-7.2,15.2-4.7
	C108,317.3,104.3,323.4,97.9,328.5z M135.9,296.1c-7,4.3-14,5.7-15.6,3c-1.6-2.6,2.7-8.3,9.7-12.6c7-4.3,14-5.7,15.6-3
	C147.2,286.1,142.8,291.8,135.9,296.1z M137,262.1c-7,4.3-14,5.7-15.6,3c-1.6-2.6,2.7-8.3,9.7-12.6c7-4.3,14-5.7,15.6-3
	C148.3,252.2,144,257.8,137,262.1z M177.3,263.7c-7.3,3.7-14.4,4.4-15.8,1.7c-1.4-2.8,3.4-8,10.8-11.7c7.3-3.7,14.4-4.4,15.8-1.7
	C189.5,254.8,184.7,260,177.3,263.7z M181.7,233.2c-7.3,3.7-14.4,4.4-15.8,1.7c-1.4-2.8,3.4-8,10.8-11.7c7.3-3.7,14.4-4.4,15.8-1.7
	C193.9,224.3,189.1,229.5,181.7,233.2z M506.8,236.5c14.2-34.5,82.2-40.6,99.1-5.2c4.7,10,2.6,1.5,15.1,68.1
	c-30.4-0.7-63.8,1.6-98.5,7.3c-11.2,1.8-22.1,4-32.8,6.4C492.5,283.7,494.9,265.3,506.8,236.5z M522.3,382.8
	c-1.7-19.9,37.3-48.5,111.6-58.5v0c44.1,7.3,75.3,21.4,96.4,43.3C667.5,385.1,599.6,393,522.3,382.8z M886.7,513.3
	c-4.9,61.9-52.2,107.6-114.5,127.4l-9.2-180.6c14.4-16.9,17.2-38.3,16.3-61.3C806,379,835,382,857,407.3
	C881.9,435.7,889.2,481.6,886.7,513.3z"/>
</svg>
